<svg width="26" height="23" viewBox="0 0 26 23" fill="none" xmlns="http://www.w3.org/2000/svg">
<g clip-path="url(#clip0_1164_529)">
<path d="M18.0426 9.79445C16.8231 10.3221 16.2638 11.7243 16.7934 12.9265C17.3229 14.1288 18.7408 14.6756 19.9603 14.148C21.1798 13.6204 21.7391 12.2181 21.2096 11.0159C20.68 9.81373 19.2621 9.26685 18.0426 9.79445Z" stroke="#FE6C75" stroke-width="1.5948" stroke-linecap="round" stroke-linejoin="round"/>
<path d="M16.7635 11.1081L12.6676 9.52832" stroke="#FE6C75" stroke-width="1.5948" stroke-linecap="round" stroke-linejoin="round"/>
<path d="M9.33626 17.8806L14.2834 5.47746" stroke="#FE6C75" stroke-width="1.5948" stroke-linecap="round" stroke-linejoin="round"/>
<path d="M14.2073 1.08736C12.9878 1.61496 12.4285 3.01725 12.958 4.21946C13.4876 5.42166 14.9055 5.96854 16.125 5.44093C17.3445 4.91333 17.9038 3.51105 17.3742 2.30884C16.8447 1.10663 15.4268 0.559759 14.2073 1.08736Z" stroke="#FE6C75" stroke-width="1.5948" stroke-linecap="round" stroke-linejoin="round"/>
<path d="M9.71185 8.38824L4.22252 6.27102" stroke="#FE6C75" stroke-width="1.5948" stroke-linecap="round" stroke-linejoin="round"/>
</g>
<defs>
<clipPath id="clip0_1164_529">
<rect width="19.2471" height="19.0288" fill="white" transform="matrix(-0.917788 0.397071 -0.403106 -0.915153 25.3354 14.4143)"/>
</clipPath>
</defs>
</svg>
