<svg width="112" height="32" viewBox="0 0 112 32" fill="none" xmlns="http://www.w3.org/2000/svg">
<g clip-path="url(#clip0_1164_528)">
<g clip-path="url(#clip1_1164_528)">
<path d="M101.043 9.79445C99.8231 10.3221 99.2638 11.7243 99.7934 12.9265C100.323 14.1288 101.741 14.6756 102.96 14.148C104.18 13.6204 104.739 12.2181 104.21 11.0159C103.68 9.81373 102.262 9.26685 101.043 9.79445Z" stroke="#FE6C75" stroke-width="1.5948" stroke-linecap="round" stroke-linejoin="round"/>
<path d="M99.7635 11.1081L95.6676 9.52832" stroke="#FE6C75" stroke-width="1.5948" stroke-linecap="round" stroke-linejoin="round"/>
<path d="M92.3363 17.8806L97.2834 5.47746" stroke="#FE6C75" stroke-width="1.5948" stroke-linecap="round" stroke-linejoin="round"/>
<path d="M97.2073 1.08736C95.9878 1.61496 95.4285 3.01725 95.958 4.21946C96.4876 5.42166 97.9055 5.96854 99.125 5.44093C100.344 4.91333 100.904 3.51105 100.374 2.30884C99.8447 1.10663 98.4268 0.559759 97.2073 1.08736Z" stroke="#FE6C75" stroke-width="1.5948" stroke-linecap="round" stroke-linejoin="round"/>
<path d="M92.7119 8.38824L87.2225 6.27102" stroke="#FE6C75" stroke-width="1.5948" stroke-linecap="round" stroke-linejoin="round"/>
</g>
<path d="M11.24 25.6699C10 25.6699 8.89333 25.3699 7.92 24.7699C6.94667 24.1699 6.18 23.3432 5.62 22.2899C5.07333 21.2232 4.8 20.0166 4.8 18.6699C4.8 17.2966 5.08 16.0766 5.64 15.0099C6.2 13.9299 6.96667 13.0766 7.94 12.4499C8.92667 11.8232 10.0467 11.4966 11.3 11.4699C12.5533 11.4699 13.6667 11.7766 14.64 12.3899C15.6133 12.9899 16.38 13.8232 16.94 14.8899C17.5 15.9432 17.78 17.1432 17.78 18.4899C17.78 19.8632 17.4933 21.0899 16.92 22.1699C16.36 23.2366 15.5867 24.0832 14.6 24.7099C13.6267 25.3232 12.5067 25.6432 11.24 25.6699ZM11.22 24.0299C12.1 24.0299 12.88 23.7966 13.56 23.3299C14.24 22.8499 14.7733 22.1966 15.16 21.3699C15.5467 20.5299 15.74 19.5766 15.74 18.5099C15.74 17.4699 15.5467 16.5432 15.16 15.7299C14.7867 14.9166 14.2667 14.2832 13.6 13.8299C12.9467 13.3632 12.1933 13.1299 11.34 13.1299C10.46 13.1299 9.68 13.3699 9 13.8499C8.32 14.3166 7.78 14.9632 7.38 15.7899C6.99333 16.6166 6.8 17.5632 6.8 18.6299C6.8 19.6699 6.98667 20.5966 7.36 21.4099C7.74667 22.2232 8.27333 22.8632 8.94 23.3299C9.60667 23.7966 10.3667 24.0299 11.22 24.0299ZM22.8903 25.3899H20.9703V11.4899L22.8903 11.2699V25.3899ZM32.8369 23.7499V11.4899L34.7769 11.2899V25.3899H33.6769L32.8369 23.7499ZM33.4369 22.5499L34.0169 23.9299C33.7369 24.3166 33.3902 24.6432 32.9769 24.9099C32.5635 25.1632 32.1502 25.3499 31.7369 25.4699C31.3369 25.5899 30.9969 25.6499 30.7169 25.6499C29.7302 25.6499 28.8702 25.4366 28.1369 25.0099C27.4169 24.5699 26.8635 23.9632 26.4769 23.1899C26.0902 22.4166 25.8969 21.5099 25.8969 20.4699C25.8969 19.4566 26.0969 18.5766 26.4969 17.8299C26.8969 17.0699 27.4569 16.4832 28.1769 16.0699C28.9102 15.6432 29.7635 15.4299 30.7369 15.4299C31.0035 15.4299 31.3435 15.4899 31.7569 15.6099C32.1702 15.7166 32.5835 15.8966 32.9969 16.1499C33.4235 16.4032 33.7769 16.7432 34.0569 17.1699L33.4969 18.5299C33.0835 18.0099 32.6569 17.6366 32.2169 17.4099C31.7902 17.1832 31.2902 17.0699 30.7169 17.0699C30.1169 17.0699 29.6035 17.2232 29.1769 17.5299C28.7502 17.8232 28.4235 18.2232 28.1969 18.7299C27.9702 19.2366 27.8569 19.8099 27.8569 20.4499C27.8569 21.1432 27.9635 21.7566 28.1769 22.2899C28.4035 22.8232 28.7302 23.2432 29.1569 23.5499C29.5835 23.8566 30.1035 24.0099 30.7169 24.0099C31.3035 24.0099 31.7969 23.8899 32.1969 23.6499C32.6102 23.4099 33.0235 23.0432 33.4369 22.5499ZM43.6758 25.3899H38.9758V11.7899H43.2558C44.1758 11.7899 44.9824 11.9099 45.6758 12.1499C46.3824 12.3766 46.9358 12.7566 47.3358 13.2899C47.7358 13.8232 47.9358 14.5499 47.9358 15.4699C47.9358 16.0566 47.7558 16.5699 47.3958 17.0099C47.0491 17.4366 46.6491 17.7966 46.1958 18.0899C46.9158 18.3699 47.5024 18.7899 47.9558 19.3499C48.4091 19.9099 48.6358 20.6299 48.6358 21.5099C48.6358 22.1899 48.5091 22.7766 48.2558 23.2699C48.0158 23.7499 47.6691 24.1499 47.2158 24.4699C46.7758 24.7766 46.2558 25.0099 45.6558 25.1699C45.0558 25.3166 44.3958 25.3899 43.6758 25.3899ZM43.0958 13.4099H40.8958V17.5899H42.7558C43.3424 17.5766 43.8758 17.5032 44.3558 17.3699C44.8491 17.2366 45.2358 17.0166 45.5158 16.7099C45.8091 16.4032 45.9558 15.9966 45.9558 15.4899C45.9558 14.9299 45.8358 14.5032 45.5958 14.2099C45.3691 13.9032 45.0424 13.6966 44.6158 13.5899C44.1891 13.4699 43.6824 13.4099 43.0958 13.4099ZM43.7958 19.1499H40.8958V23.8099H43.5958C44.1824 23.8099 44.7091 23.7366 45.1758 23.5899C45.6424 23.4299 46.0091 23.1832 46.2758 22.8499C46.5424 22.5166 46.6758 22.0832 46.6758 21.5499C46.6758 20.7232 46.4091 20.1166 45.8758 19.7299C45.3558 19.3432 44.6624 19.1499 43.7958 19.1499ZM53.5466 25.3899H51.6266V11.4899L53.5466 11.2699V25.3899ZM58.6131 22.5899C58.6131 22.8299 58.6731 23.0699 58.7931 23.3099C58.9131 23.5366 59.0931 23.7299 59.3331 23.8899C59.5731 24.0366 59.8731 24.1099 60.2331 24.1099C60.7265 24.1099 61.1865 23.9899 61.6131 23.7499C62.0531 23.5099 62.4398 23.2032 62.7731 22.8299V20.8699H60.4131C59.8265 20.8699 59.3798 21.0432 59.0731 21.3899C58.7665 21.7366 58.6131 22.1366 58.6131 22.5899ZM58.0131 17.8099L57.4731 16.2899C57.7265 16.1166 58.0598 15.9699 58.4731 15.8499C58.8865 15.7166 59.3065 15.6166 59.7331 15.5499C60.1598 15.4699 60.5065 15.4299 60.7731 15.4299C61.5198 15.4299 62.1865 15.5832 62.7731 15.8899C63.3731 16.1832 63.8398 16.5899 64.1731 17.1099C64.5198 17.6166 64.6931 18.1832 64.6931 18.8099V25.3899H63.3531L63.1131 24.4699C62.7798 24.7632 62.3531 25.0299 61.8331 25.2699C61.3131 25.5099 60.7931 25.6299 60.2731 25.6299C59.1265 25.6299 58.2731 25.3432 57.7131 24.7699C57.1665 24.1966 56.8931 23.4699 56.8931 22.5899C56.8931 21.6166 57.2198 20.8766 57.8731 20.3699C58.5398 19.8499 59.3998 19.5899 60.4531 19.5899H62.7531V19.4899C62.7531 18.8232 62.6198 18.2699 62.3531 17.8299C62.0865 17.3766 61.5731 17.1499 60.8131 17.1499C60.2398 17.1499 59.7198 17.2232 59.2531 17.3699C58.7865 17.5032 58.3731 17.6499 58.0131 17.8099ZM74.3564 23.7499V11.4899L76.2964 11.2899V25.3899H75.1964L74.3564 23.7499ZM74.9564 22.5499L75.5364 23.9299C75.2564 24.3166 74.9097 24.6432 74.4964 24.9099C74.0831 25.1632 73.6697 25.3499 73.2564 25.4699C72.8564 25.5899 72.5164 25.6499 72.2364 25.6499C71.2497 25.6499 70.3897 25.4366 69.6564 25.0099C68.9364 24.5699 68.3831 23.9632 67.9964 23.1899C67.6097 22.4166 67.4164 21.5099 67.4164 20.4699C67.4164 19.4566 67.6164 18.5766 68.0164 17.8299C68.4164 17.0699 68.9764 16.4832 69.6964 16.0699C70.4297 15.6432 71.2831 15.4299 72.2564 15.4299C72.5231 15.4299 72.8631 15.4899 73.2764 15.6099C73.6897 15.7166 74.1031 15.8966 74.5164 16.1499C74.9431 16.4032 75.2964 16.7432 75.5764 17.1699L75.0164 18.5299C74.6031 18.0099 74.1764 17.6366 73.7364 17.4099C73.3097 17.1832 72.8097 17.0699 72.2364 17.0699C71.6364 17.0699 71.1231 17.2232 70.6964 17.5299C70.2697 17.8232 69.9431 18.2232 69.7164 18.7299C69.4897 19.2366 69.3764 19.8099 69.3764 20.4499C69.3764 21.1432 69.4831 21.7566 69.6964 22.2899C69.9231 22.8232 70.2497 23.2432 70.6764 23.5499C71.1031 23.8566 71.6231 24.0099 72.2364 24.0099C72.8231 24.0099 73.3164 23.8899 73.7164 23.6499C74.1297 23.4099 74.5431 23.0432 74.9564 22.5499ZM88.1753 20.9699H81.2953C81.3486 21.5566 81.4886 22.0832 81.7153 22.5499C81.9553 23.0166 82.3086 23.3832 82.7753 23.6499C83.242 23.9032 83.8353 24.0299 84.5553 24.0299C85.1286 24.0299 85.622 23.9499 86.0353 23.7899C86.462 23.6299 86.942 23.4232 87.4753 23.1699L88.0753 24.5699C87.7553 24.7566 87.4086 24.9366 87.0353 25.1099C86.662 25.2699 86.2686 25.3966 85.8553 25.4899C85.442 25.5832 85.0086 25.6299 84.5553 25.6299C83.4086 25.6299 82.442 25.4166 81.6553 24.9899C80.8686 24.5632 80.2753 23.9699 79.8753 23.2099C79.4886 22.4366 79.2953 21.5432 79.2953 20.5299C79.2953 19.5166 79.482 18.6299 79.8553 17.8699C80.2286 17.1099 80.762 16.5166 81.4553 16.0899C82.1486 15.6499 82.9753 15.4299 83.9353 15.4299C84.9486 15.4299 85.762 15.6766 86.3753 16.1699C87.002 16.6632 87.4553 17.3166 87.7353 18.1299C88.0286 18.9432 88.1753 19.8232 88.1753 20.7699V20.9699ZM81.3353 19.6699H86.3153C86.2353 19.1366 86.0953 18.6766 85.8953 18.2899C85.6953 17.9032 85.4286 17.6032 85.0953 17.3899C84.7753 17.1766 84.3686 17.0699 83.8753 17.0699C83.382 17.0699 82.9553 17.1766 82.5953 17.3899C82.2353 17.6032 81.9486 17.9032 81.7353 18.2899C81.5353 18.6766 81.402 19.1366 81.3353 19.6699Z" fill="#FE6C75"/>
</g>
<defs>
<clipPath id="clip0_1164_528">
<rect width="112" height="32" fill="white"/>
</clipPath>
<clipPath id="clip1_1164_528">
<rect width="19.2471" height="19.0288" fill="white" transform="matrix(-0.917788 0.397071 -0.403106 -0.915153 108.335 14.4143)"/>
</clipPath>
</defs>
</svg>
